# xmcd
#
# Track frame offsets: 
#        150
#        32733
#        55165
#        78658
#        106965
#        142933
#        166528
#        193525
#
# Disc length: 2840 seconds
#
# Revision: 1
# Processed by: cddbd v1.5.2PL0 Copyright (c) Steve Scherf et al.
# Submitted via: ExactAudioCopy v0.95b2
#
DISCID=5c0b1608
DTITLE=Various Artist - Prestige Profiles Collector's Edition Vol. 9
DYEAR=2005
DGENRE=Jazz
TTITLE0=Miles Davis - Four
TTITLE1=Red Garland - Soul Burnin'
TTITLE2=Sonny Rollins - Paul's Pal
TTITLE3=Hank Mobley - Minor Disturbance
TTITLE4=Mal Waldron - Fire Waltz
TTITLE5=Eric Dolphy - Les
TTITLE6=Yusef Lateef - Cry!-Tender
TTITLE7=Steve Lacy - Skippy
EXTD=YEAR: 2005
EXTT0=
EXTT1=
EXTT2=
EXTT3=
EXTT4=
EXTT5=
EXTT6=
EXTT7=
PLAYORDER=
